<svg width="841" height="278" viewBox="0 0 841 278" fill="none" xmlns="http://www.w3.org/2000/svg">
  <path
    d="M109.048 9.0129L13.9452 63.9298C10.268 66.0657 8 69.9852 8 74.2349V196.774C8 201.024 10.268 204.943 13.9452 207.079L120.08 268.36C123.757 270.496 128.293 270.496 131.97 268.36L238.105 207.079C241.782 204.943 244.05 201.024 244.05 196.774V74.2349C244.05 69.9852 241.782 66.0657 238.105 63.9298L141.241 8"
    fill="white" />
  <path
    d="M109.048 9.0129L13.9452 63.9298C10.268 66.0657 8 69.9852 8 74.2349V196.774C8 201.024 10.268 204.943 13.9452 207.079L120.08 268.36C123.757 270.496 128.293 270.496 131.97 268.36L238.105 207.079C241.782 204.943 244.05 201.024 244.05 196.774V74.2349C244.05 69.9852 241.782 66.0657 238.105 63.9298L141.241 8"
    stroke="url(#paint0_linear_1_24)" stroke-width="15" stroke-miterlimit="10" stroke-linecap="round"
    stroke-linejoin="round" />
  <g filter="url(#filter0_i_1_24)">
    <path
      d="M212.1 178.322V92.6653C212.1 88.4156 209.832 84.4961 206.154 82.3602L131.97 39.5321C128.293 37.3962 123.757 37.3962 120.08 39.5321L45.8957 82.3602C42.2184 84.4961 39.9504 88.4156 39.9504 92.6653V178.322C39.9504 182.571 42.2184 186.491 45.8957 188.627L120.08 231.455C123.757 233.591 128.293 233.591 131.97 231.455L206.154 188.627C209.832 186.491 212.1 182.571 212.1 178.322Z"
      fill="url(#paint1_linear_1_24)" />
  </g>
  <g filter="url(#filter1_d_1_24)">
    <path
      d="M96.4527 142.011L109.092 111.426L122.084 142.011L126.884 152.955L137.475 177.969H149.63L113.54 93.0176H104.952L69.3466 177.969H81.3913L91.8506 152.955L96.4527 142.011Z"
      fill="white" />
  </g>
  <g filter="url(#filter2_d_1_24)">
    <path d="M171.439 93.0176H160.164V177.969H171.439V93.0176Z" fill="white" />
  </g>
  <path
    d="M678.767 189.157V139.223L717.747 87.9256H701.013L671.974 126.337L643.618 87.9256H627.183L664.704 138.507V189.157H678.767ZM580.205 189.881L623.844 87.9256H609.528L578.631 160.12L548.318 87.9102H533.81L576.612 189.866L580.205 189.881ZM485.872 189.881L529.527 87.9256H515.226L484.298 160.12L454.008 87.9102H439.477L482.28 189.866L485.872 189.881ZM396.061 146.317L410.998 109.846L426.351 146.317L432.039 159.342L444.551 189.157H458.936L437.6 138.541L416.264 87.9256H406.109L385.053 138.541L363.997 189.157H378.252L390.61 159.342L396.061 146.317ZM316.297 188.618C320.849 190.218 325.645 191.001 330.468 190.929C338.86 190.929 345.741 188.408 351.109 183.365C356.477 178.323 359.164 171.945 359.169 164.233C359.169 157.424 357.733 151.719 354.862 147.118C351.992 142.517 345.899 137.197 336.585 131.159L334.505 129.849C323.052 122.424 317.328 116.203 317.334 111.187C317.299 109.521 317.657 107.87 318.377 106.369C319.097 104.867 320.16 103.557 321.479 102.545C324.237 100.296 327.791 99.1734 332.141 99.1786C335.883 99.2055 339.577 100.027 342.98 101.59C347.247 103.639 351.218 106.259 354.786 109.377V92.9475C351.362 90.7236 347.661 88.9625 343.778 87.7099C340.192 86.5735 336.454 85.9968 332.694 86C324.265 86 317.372 88.5213 312.014 93.5637C306.656 98.6062 303.985 105.058 304 112.92C304 118.512 305.389 123.349 308.199 127.392C311.008 131.436 317.886 137.167 328.879 144.538C335.961 149.211 340.439 152.805 342.312 155.321C344.197 157.803 345.192 160.851 345.137 163.971C345.137 167.966 343.745 171.134 340.961 173.475C338.177 175.817 334.377 176.99 329.562 176.995C325.058 177.006 320.633 175.804 316.75 173.514C312.743 171.188 308.539 167.403 304.138 162.161V181.262C307.714 184.433 311.834 186.926 316.297 188.618Z"
    fill="#3A6771" />
  <path
    d="M747.124 147.026L762.062 110.555L777.415 147.026L783.103 160.05L795.615 189.866H810L788.664 139.25L767.328 88.6343H757.172L736.117 139.25L715.061 189.866H729.316L741.674 160.05L747.124 147.026Z"
    fill="#3A6771" />
  <rect x="826" y="88" width="15" height="103" fill="#3A6771" />
  <defs>
    <filter id="filter0_i_1_24" x="39.9504" y="37.9301" width="172.149" height="199.127" filterUnits="userSpaceOnUse"
      color-interpolation-filters="sRGB">
      <feFlood flood-opacity="0" result="BackgroundImageFix" />
      <feBlend mode="normal" in="SourceGraphic" in2="BackgroundImageFix" result="shape" />
      <feColorMatrix in="SourceAlpha" type="matrix" values="0 0 0 0 0 0 0 0 0 0 0 0 0 0 0 0 0 0 127 0"
        result="hardAlpha" />
      <feOffset dy="4" />
      <feGaussianBlur stdDeviation="2" />
      <feComposite in2="hardAlpha" operator="arithmetic" k2="-1" k3="1" />
      <feColorMatrix type="matrix" values="0 0 0 0 0 0 0 0 0 0 0 0 0 0 0 0 0 0 0.25 0" />
      <feBlend mode="normal" in2="shape" result="effect1_innerShadow_1_24" />
    </filter>
    <filter id="filter1_d_1_24" x="65.3466" y="93.0176" width="88.2835" height="92.9516" filterUnits="userSpaceOnUse"
      color-interpolation-filters="sRGB">
      <feFlood flood-opacity="0" result="BackgroundImageFix" />
      <feColorMatrix in="SourceAlpha" type="matrix" values="0 0 0 0 0 0 0 0 0 0 0 0 0 0 0 0 0 0 127 0"
        result="hardAlpha" />
      <feOffset dy="4" />
      <feGaussianBlur stdDeviation="2" />
      <feComposite in2="hardAlpha" operator="out" />
      <feColorMatrix type="matrix" values="0 0 0 0 0 0 0 0 0 0 0 0 0 0 0 0 0 0 0.25 0" />
      <feBlend mode="normal" in2="BackgroundImageFix" result="effect1_dropShadow_1_24" />
      <feBlend mode="normal" in="SourceGraphic" in2="effect1_dropShadow_1_24" result="shape" />
    </filter>
    <filter id="filter2_d_1_24" x="156.164" y="93.0176" width="19.274" height="92.9516" filterUnits="userSpaceOnUse"
      color-interpolation-filters="sRGB">
      <feFlood flood-opacity="0" result="BackgroundImageFix" />
      <feColorMatrix in="SourceAlpha" type="matrix" values="0 0 0 0 0 0 0 0 0 0 0 0 0 0 0 0 0 0 127 0"
        result="hardAlpha" />
      <feOffset dy="4" />
      <feGaussianBlur stdDeviation="2" />
      <feComposite in2="hardAlpha" operator="out" />
      <feColorMatrix type="matrix" values="0 0 0 0 0 0 0 0 0 0 0 0 0 0 0 0 0 0 0.25 0" />
      <feBlend mode="normal" in2="BackgroundImageFix" result="effect1_dropShadow_1_24" />
      <feBlend mode="normal" in="SourceGraphic" in2="effect1_dropShadow_1_24" result="shape" />
    </filter>
    <linearGradient id="paint0_linear_1_24" x1="0.691858" y1="66.1868" x2="251.258" y2="205.008"
      gradientUnits="userSpaceOnUse">
      <stop stop-color="#8DC63F" />
      <stop offset="0.0869" stop-color="#8BC143" />
      <stop offset="0.2169" stop-color="#84B652" />
      <stop offset="0.3737" stop-color="#79A667" />
      <stop offset="0.5514" stop-color="#6C907C" />
      <stop offset="0.7468" stop-color="#5C758E" />
      <stop offset="0.954" stop-color="#4B559C" />
      <stop offset="1" stop-color="#474DA0" />
    </linearGradient>
    <linearGradient id="paint1_linear_1_24" x1="27.9907" y1="28.2701" x2="207.895" y2="225.041"
      gradientUnits="userSpaceOnUse">
      <stop stop-color="#8DC63F" />
      <stop offset="0.1484" stop-color="#83B454" />
      <stop offset="0.4749" stop-color="#6A8D7E" />
      <stop offset="0.9528" stop-color="#4A539D" />
      <stop offset="1" stop-color="#474DA0" />
    </linearGradient>
  </defs>
</svg>